<?xml version="1.0" standalone="no"?>
<!DOCTYPE svg PUBLIC "-//W3C//DTD SVG 20010904//EN"
 "http://www.w3.org/TR/2001/REC-SVG-20010904/DTD/svg10.dtd">
<svg version="1.0" xmlns="http://www.w3.org/2000/svg"
 width="500.000000pt" height="500.000000pt" viewBox="0 0 500.000000 500.000000"
 preserveAspectRatio="xMidYMid meet">
<metadata>
Created by potrace 1.11, written by Peter Selinger 2001-2013
</metadata>
<g transform="translate(0.000000,500.000000) scale(0.100000,-0.100000)"
fill="#000000" stroke="none">
<path d="M2329 4815 c-2 -2 -32 -6 -67 -10 -60 -6 -204 -29 -247 -39 -11 -2
-41 -9 -68 -15 -189 -43 -500 -172 -635 -262 -24 -16 -45 -29 -48 -29 -2 0
-27 -16 -54 -35 -27 -19 -54 -35 -60 -35 -5 0 -10 -4 -10 -8 0 -5 -21 -24 -47
-43 -180 -128 -375 -336 -524 -559 -57 -86 -197 -345 -212 -395 -4 -11 -13
-38 -22 -60 -14 -34 -46 -129 -50 -145 0 -3 -8 -30 -17 -60 -10 -30 -20 -70
-23 -89 -3 -19 -8 -37 -10 -40 -2 -4 -6 -26 -10 -51 -4 -25 -8 -47 -10 -50 -2
-3 -6 -33 -10 -65 -3 -33 -10 -87 -15 -120 -5 -33 -7 -141 -5 -240 4 -172 6
-208 19 -282 3 -18 8 -45 11 -60 20 -126 36 -192 74 -313 29 -96 82 -234 106
-280 7 -14 26 -52 42 -85 55 -113 204 -341 268 -411 5 -6 34 -39 64 -73 29
-34 82 -89 118 -124 36 -34 73 -70 82 -79 8 -10 21 -18 28 -18 7 0 13 -4 13
-10 0 -19 226 -177 375 -262 159 -91 446 -197 630 -234 203 -40 294 -49 495
-48 181 0 277 9 406 34 28 6 64 13 80 16 32 5 230 61 254 71 8 3 21 7 28 9 8
1 28 9 45 17 18 9 38 17 46 19 33 7 262 124 346 175 160 99 413 303 445 360 7
12 17 20 22 17 4 -3 8 -2 8 3 0 4 17 26 38 49 20 23 51 58 67 79 17 20 40 49
53 63 12 14 22 28 22 33 0 4 6 14 13 21 36 38 155 237 210 353 28 57 98 232
101 249 1 6 4 16 8 21 6 11 64 233 72 275 2 14 7 41 11 60 22 116 30 227 29
395 0 166 -2 196 -23 340 -17 113 -53 272 -72 323 -6 15 -12 34 -14 42 -18 84
-112 298 -194 440 -18 30 -37 65 -43 78 -6 12 -15 22 -20 22 -4 0 -8 5 -8 11
0 9 -84 135 -100 149 -3 3 -21 25 -40 50 -38 49 -37 47 -126 141 -77 80 -144
143 -209 194 -27 22 -53 45 -57 50 -5 7 -8 7 -8 0 0 -6 -4 -5 -8 1 -8 13 -99
84 -108 84 -3 0 -24 13 -47 28 -130 89 -346 190 -527 248 -70 23 -227 64 -263
69 -18 2 -41 6 -53 9 -12 2 -45 7 -74 11 -29 4 -62 9 -74 12 -25 6 -412 14
-417 8z"/>
</g>
</svg>
